<svg xmlns="http://www.w3.org/2000/svg" viewBox="0 0 500.98 565.98"><defs><style>.cls-1{fill:#939598;}</style></defs><title>Asset 5</title><g id="Layer_2" data-name="Layer 2"><g id="Layer_1-2" data-name="Layer 1"><path class="cls-1" d="M134.58,0c-3.17,2.91-6.41,5.68-9.51,8.63s-6.23,5.83-9.3,8.76c-6.06,6-12,12-17.69,18.18a355.15,355.15,0,0,0-31.2,38.91c-4.63,6.76-8.9,13.69-12.76,20.7a167,167,0,0,0-9.92,21.29c-.64,1.78-1.33,3.56-1.86,5.34l-.85,2.65-.73,2.64c-.53,1.75-.82,3.48-1.24,5.21l-.44,2.55-.23,1.26-.13,1.24a44.35,44.35,0,0,0-.28,9.25l.09,1a5,5,0,0,0,.13,1l.33,1.88c.18.56.34,1.11.48,1.67s.39,1,.55,1.54a26.34,26.34,0,0,0,8.67,10.61,42.22,42.22,0,0,0,14.6,6.8,45.79,45.79,0,0,0,16.46,1.11,38.46,38.46,0,0,0,7.59-1.67c.59-.23,1.2-.38,1.76-.63s1.14-.48,1.71-.7,1.1-.55,1.66-.8c.27-.14.55-.25.82-.4l.8-.48c1.08-.56,2.13-1.32,3.2-2s2.11-1.53,3.18-2.45A75.49,75.49,0,0,0,107,157c4.47-4.65,9.13-10.51,14.25-17.06s10.81-13.78,17.61-21.2a153.3,153.3,0,0,1,11.23-11.09A125,125,0,0,1,163.6,97.2a109.47,109.47,0,0,1,15.72-8.7l2.07-.94,2.12-.85,4.27-1.64,4.33-1.4c1.44-.46,2.92-.9,4.37-1.27a125.27,125.27,0,0,1,17.16-3.22c2.93-.34,5.92-.59,9-.69s6.25-.11,9.54.09a84,84,0,0,1,21,3.84,70,70,0,0,1,22.26,12c.87.72,1.74,1.44,2.59,2.18s1.65,1.55,2.46,2.34c1.66,1.57,3.1,3.3,4.59,5s2.77,3.55,4,5.38a60.17,60.17,0,0,1,3.34,5.56c1,1.86,1.93,3.75,2.79,5.64s1.46,3.67,2.14,5.53l.51,1.4.39,1.33.76,2.67.72,2.69c.22.88.37,1.71.55,2.57.33,1.7.68,3.44.94,5.11l.61,4.89c.22,1.67.28,3.17.38,4.73l.13,2.33c.05.79.09,1.56.08,2.29,0,3,.07,6-.1,8.78-.07,1.41-.1,2.88-.22,4.24l-.34,4.12c-.11,1.39-.28,2.71-.44,4l-.49,4c-.41,2.56-.77,5.2-1.26,7.7s-.94,5-1.5,7.46l-.81,3.68-.87,3.6a365,365,0,0,1-18.21,53.8q-2.7,6.4-5.55,12.72c-.95,2.1-1.92,4.21-2.91,6.3s-1.94,4.07-3,6.21l-3.2,6.31-1.6,3.16-1.7,3.12-3.41,6.24c-1.12,2.09-2.39,4.11-3.58,6.17-4.74,8.26-10.05,16.25-15.53,24.13S226.27,347.31,220,354.64a383.45,383.45,0,0,1-39.88,40.45c-6.86,6.08-13.75,11.77-20.12,17.13s-12.24,10.36-16.64,14.72l-.83.81-.42.41-.35.37L140.36,430c-.53.51-.82.93-1.23,1.38l-.58.66a6.1,6.1,0,0,0-.52.62c-.28.38-.57.76-.87,1.13l-.23.27-.14.24-.29.45c-.52.64-.6,1.06-.93,1.48a4.53,4.53,0,0,1-.2.49c0,.07-.12.14-.13.21a.57.57,0,0,1,0,.18c0,.11-.15.2-.13.32a.58.58,0,0,1-.08.31,8.36,8.36,0,0,0-.12,2.21c0,.12,0,.24,0,.37a3.83,3.83,0,0,0,.07.43,6.54,6.54,0,0,1,.07.89c.08.33.17.68.23,1l.08.53.18.57c.12.39.22.79.31,1.19l.48,1.28c.22.85.77,1.78,1.12,2.71a55,55,0,0,0,8,12l.63.77.7.73,1.38,1.5c.93,1,2,1.92,2.94,2.91s2.08,1.87,3.17,2.77l1.66,1.32c.55.45,1.09.91,1.69,1.31A87.51,87.51,0,0,0,172.24,481a74.39,74.39,0,0,0,15.61,5.36,61.58,61.58,0,0,0,15.27,1.44,51.32,51.32,0,0,0,7.27-.77,49.63,49.63,0,0,0,7.22-1.78,80.28,80.28,0,0,0,15.69-7.2c10.81-6.36,21.81-15.43,32.11-25.86a299.48,299.48,0,0,0,29.23-34.84,427,427,0,0,0,25.49-39.66,474.74,474.74,0,0,0,21.51-42.62,408.29,408.29,0,0,0,16.91-44.47c2.32-7.51,4.41-15.05,6.15-22.57a216,216,0,0,0,3.94-22.36c.47-3.68.71-7.28.88-10.83.05-1.78.12-3.36.07-5.7s0-4.75.05-7.25A114,114,0,0,1,374.42,191a89,89,0,0,1,14.79-28.55,106,106,0,0,1,21.79-21,93.75,93.75,0,0,1,26.93-13.81,65.41,65.41,0,0,1,15.73-3,48.52,48.52,0,0,1,16.94,1.88,38.4,38.4,0,0,1,15.13,8.73,41.59,41.59,0,0,1,5.5,6.31c.75,1.12,1.48,2.26,2.19,3.39s1.2,2.32,1.78,3.48a56.36,56.36,0,0,1,4.49,14.13c.52,2.35.68,4.7,1,7,.12,1.16.13,2.32.2,3.48s.15,2.31.1,3.45a106.41,106.41,0,0,1-3.56,26.56c-.52,2.13-1.24,4.22-1.84,6.31s-1.44,4.12-2.16,6.16-1.68,4-2.5,6-1.86,3.9-2.8,5.82l1.15-6.31c.29-2.12.6-4.22.86-6.31s.44-4.2.58-6.3.26-4.18.25-6.27a102.69,102.69,0,0,0-2.32-24.33c-.18-1-.5-1.91-.74-2.86s-.49-1.9-.79-2.82c-.67-1.82-1.19-3.68-2-5.38a41.62,41.62,0,0,0-5.31-9.35c-.54-.64-1.05-1.31-1.58-1.93s-1.15-1.11-1.7-1.66a20.86,20.86,0,0,0-3.55-2.65,17.18,17.18,0,0,0-7.6-2.34c-5.3-.41-11.38,1.37-17.26,4.51a68.29,68.29,0,0,0-16.42,12.68,75.33,75.33,0,0,0-12.3,16.71,51.38,51.38,0,0,0-5.8,17.84,75.72,75.72,0,0,0,.09,19.77c.2,1.75.48,3.51.77,5.48.14,1,.31,2.09.45,3.3l.42,3.73c.47,5,.79,9.86.86,14.68A239.31,239.31,0,0,1,415,276c-.91,9.28-2.28,18.41-4,27.43a422.16,422.16,0,0,1-13.56,52.86,484.58,484.58,0,0,1-19.72,50.68A448.94,448.94,0,0,1,352,455.46q-7.25,11.85-15.51,23.3c-5.51,7.63-11.33,15.17-17.7,22.45-12.73,14.55-27.11,28.59-45,40.53-2.21,1.51-4.57,2.92-6.88,4.36s-4.74,2.8-7.27,4.08a141.22,141.22,0,0,1-15.67,7.18,127.46,127.46,0,0,1-17.29,5.26,129.53,129.53,0,0,1-18,2.85,134.22,134.22,0,0,1-35.51-1.62,153,153,0,0,1-33-9.87,158.69,158.69,0,0,1-29.57-16.49c-1.17-.78-2.3-1.63-3.43-2.5l-3.38-2.57c-2.23-1.76-4.4-3.63-6.58-5.46s-4.24-3.85-6.3-5.88L87.88,518l-1.51-1.56-1.47-1.64L82,511.48c-1-1.09-1.87-2.3-2.8-3.45s-1.85-2.32-2.75-3.53l-2.63-3.7c-1.77-2.43-3.37-5.14-5-7.75-.82-1.29-1.55-2.74-2.32-4.11s-1.52-2.75-2.21-4.21c-1.37-3-2.8-5.81-4-9-.6-1.56-1.21-3.11-1.77-4.69s-1-3.28-1.52-4.93c-.25-.83-.5-1.64-.72-2.48l-.61-2.59c-.39-1.73-.78-3.45-1.12-5.2s-.55-3.62-.79-5.43c-.12-.91-.26-1.8-.34-2.73l-.18-2.81a88,88,0,0,1,9.28-45.69,103.22,103.22,0,0,1,5.55-9.5l1.47-2.2.74-1.1.74-1,3-3.94c.51-.68,1-1.25,1.5-1.84l1.5-1.76c1-1.14,2-2.39,3-3.39l3-3.14.75-.78.72-.71,1.45-1.42c7.76-7.54,14.92-13.47,21.6-19.05s12.9-10.69,18.84-15.81A318.87,318.87,0,0,0,158.63,302c5-5.49,9.48-11.32,14-17.2l3.26-4.51,1.63-2.26,1.55-2.31,3.16-4.62c1-1.55,2-3.15,3-4.72s2.05-3.13,3-4.77l2.87-4.86,1.45-2.43,1.36-2.49,2.74-5c3.71-6.87,7.2-13.77,10.52-20.8s6.39-14.1,9.18-21.14,5.36-14.05,7.43-20.88l.77-2.56.7-2.53c.49-1.69.87-3.33,1.28-5s.72-3.22,1.1-4.84l.44-2.32c.15-.78.31-1.56.4-2.29l.35-2.22c.12-.75.16-1.41.25-2.12.2-1.44.23-2.68.34-4a7.4,7.4,0,0,0,0-.91v-.85c0-.56.06-1.19,0-1.63s0-1,0-1.47-.1-.77-.12-1.17a4.91,4.91,0,0,0,0-.57c0-.13-.06-.26-.08-.39s0-.28,0-.42v-.21l0-.1a1.05,1.05,0,0,1,0-.47s0,0,0-.12.68.48,1.18.66.67,0,.09-.36a12.9,12.9,0,0,0-3.95-1.21,27.46,27.46,0,0,0-3.2-.37c-1.16-.08-2.42-.1-3.73-.07a58.32,58.32,0,0,0-8,.74c-1.23.17-2.37.53-3.59.72l-1.75.48-.89.23-.86.3a42.8,42.8,0,0,0-6.95,2.93,60.5,60.5,0,0,0-7.18,4.48c-2.45,1.75-5,3.85-7.59,6.12s-5.29,4.9-8,7.65-5.64,5.78-8.66,8.89A270.8,270.8,0,0,1,145.07,199a116.39,116.39,0,0,1-13.4,9.74c-2.4,1.55-5,2.95-7.61,4.34s-5.38,2.61-8.23,3.68l-2.1.83c-.71.27-1.44.49-2.16.73-1.45.47-2.88,1-4.35,1.36l-4.4,1.12c-1.47.37-3,.6-4.44.88a90.56,90.56,0,0,1-17.7,1.24,92.32,92.32,0,0,1-33.59-7.26A85,85,0,0,1,18.42,196a70.15,70.15,0,0,1-10.8-14.78,62.67,62.67,0,0,1-6.5-17.75c-.26-1.57-.56-3.15-.73-4.7S.12,155.7,0,154.15s0-3,0-4.49c0-.76,0-1.48.11-2.19l.17-2.16a78.23,78.23,0,0,1,3.17-16L4,127.45l.63-1.81c.42-1.2.83-2.41,1.27-3.59,1-2.3,1.83-4.67,2.89-6.86l1.55-3.32L12,108.66c1.08-2.16,2.3-4.19,3.47-6.25A180.9,180.9,0,0,1,31.35,79.72,247.53,247.53,0,0,1,49.43,59.8,312.82,312.82,0,0,1,90,26.27c7.17-4.93,14.43-9.65,21.87-14,3.75-2.14,7.46-4.32,11.26-6.34S130.74,1.91,134.58,0Z"/></g></g></svg>