<svg xmlns="http://www.w3.org/2000/svg" viewBox="0 0 407.64 372.36"><defs><style>.cls-1{fill:#231f20;}</style></defs><title>Asset 4</title><g id="Layer_2" data-name="Layer 2"><g id="Layer_1-2" data-name="Layer 1"><path class="cls-1" d="M108.45,0c-5.34,2.73-10.62,5.47-15.8,8.39S82.4,14.3,77.47,17.5a213.7,213.7,0,0,0-27.7,20.9,137.44,137.44,0,0,0-11.69,12,75.83,75.83,0,0,0-9,13c-2.31,4.39-3.89,8.85-4.13,12.53a12.72,12.72,0,0,0,.52,4.69,13.77,13.77,0,0,0,2.05,3.87,33.86,33.86,0,0,0,9,8,58.84,58.84,0,0,0,12.64,6,65.38,65.38,0,0,0,13.81,3.11,49.94,49.94,0,0,0,13.16-.24,34,34,0,0,0,5.81-1.44,37.53,37.53,0,0,0,5.48-2.33A75,75,0,0,0,99,89.88l6.72-5.27c2.39-1.88,4.94-3.85,7.67-5.83s5.72-4,8.89-5.89a96.26,96.26,0,0,1,10.17-5.27,88.62,88.62,0,0,1,11.19-4,86.09,86.09,0,0,1,11.64-2.45c1-.13,2-.27,2.91-.38l2.9-.25c1.94-.18,3.88-.26,5.72-.3,3.71-.09,7.35,0,11.05.26a98.12,98.12,0,0,1,11.29,1.42,84.19,84.19,0,0,1,11.8,3,69.34,69.34,0,0,1,12.35,5.5,54.79,54.79,0,0,1,12.22,9.4c1,1,1.9,2,2.78,3.09l1.33,1.64,1.24,1.73a38.5,38.5,0,0,1,2.28,3.61,40.87,40.87,0,0,1,2,3.75,54.24,54.24,0,0,1,4.65,15.44,64.85,64.85,0,0,1,.54,14.24l-.27,3.3-.43,3.16c-.13,1.07-.32,2.07-.51,3.07s-.37,2-.59,3a123.55,123.55,0,0,1-6.94,21.41,182.71,182.71,0,0,1-9.21,18.59c-3.34,5.88-6.84,11.54-10.65,17-.94,1.37-1.93,2.77-2.85,4.05l-3.07,4.1c-2,2.76-4.23,5.39-6.4,8-1.07,1.35-2.25,2.61-3.39,3.9s-2.27,2.59-3.47,3.83c-2.41,2.47-4.78,5-7.32,7.32a187,187,0,0,1-15.72,13.43,195.75,195.75,0,0,1-16.83,11.57c-5.72,3.55-11.52,6.8-17.24,9.78s-11.39,5.68-16.71,8.24-10.31,5-14.23,7.18l-1.35.8-.69.4-.57.37-1.13.71-.87.63-.44.3-.27.24c-.16.15-.41.32-.52.42a.72.72,0,0,1-.23.23c-.07,0,0,0,0,0s0,0,0,0a.11.11,0,0,1,0-.06.57.57,0,0,0,.15-.16c.11-.12.06-.24.24-.44a2.14,2.14,0,0,0,.26-.62,1.72,1.72,0,0,0,.23-.67,2.15,2.15,0,0,0,.17-1.22,15.59,15.59,0,0,0,2.19,5.51,52.88,52.88,0,0,0,7,9.25,97.86,97.86,0,0,0,21.62,17.19,104.55,104.55,0,0,0,25.9,11.17,82.37,82.37,0,0,0,13.16,2.52c1.07.07,2.14.14,3.22.24s2.11,0,3.17.1a11.91,11.91,0,0,0,1.58,0l1.58-.08,1.58-.06a10.62,10.62,0,0,0,1.59-.11,86.53,86.53,0,0,0,26.24-7.3A137,137,0,0,0,234,297.94a184.18,184.18,0,0,0,23.42-21.36,217.66,217.66,0,0,0,20.14-25.32,186.36,186.36,0,0,0,16-28l1.64-3.64,1.47-3.67c1.06-2.45,1.82-4.91,2.72-7.38.42-1.23.74-2.46,1.12-3.69L301,203c.18-.61.3-1.22.45-1.84l.9-3.69.67-3.64c.27-1.23.35-2.4.5-3.6a31.61,31.61,0,0,0,.32-3.55l.08-1.73,0-.88,0-.44v-.5c0-1.4-.07-3.21-.06-5a58.77,58.77,0,0,1,4.45-22.95,46.24,46.24,0,0,1,6.48-10.68,51.47,51.47,0,0,1,8.45-8.12,65,65,0,0,1,18.94-10,69.37,69.37,0,0,1,20.45-3.74,50.94,50.94,0,0,1,20.88,3.53,37.28,37.28,0,0,1,16.86,13.21,40.86,40.86,0,0,1,2.73,4.5c.38.78.72,1.57,1.08,2.35.17.4.36.78.51,1.18l.42,1.21a42,42,0,0,1,2.22,9.73A54,54,0,0,1,398,193.74a61.36,61.36,0,0,0,3.35-17.23A46.14,46.14,0,0,0,399.24,160a34.46,34.46,0,0,0-3.29-7.17l-.49-.83c-.18-.27-.38-.52-.56-.78l-1.11-1.52a29.47,29.47,0,0,0-2.54-2.68,24.29,24.29,0,0,0-12.38-6.28,36.78,36.78,0,0,0-14.35.3,49.7,49.7,0,0,0-13.92,5.16,56,56,0,0,0-6.16,3.92,39.3,39.3,0,0,0-5.18,4.6,24.58,24.58,0,0,0-3.65,4.88,20.19,20.19,0,0,0-1.91,5,33,33,0,0,0-.26,12.13l.59,3.89.09.6.07.68.13,1.35.25,2.71c.21,1.83.21,3.59.24,5.36s.1,3.58,0,5.29l-.26,5.22-.56,5.1c-.1.85-.18,1.71-.31,2.55l-.42,2.49c-.28,1.66-.53,3.35-.86,5-.73,3.24-1.36,6.57-2.28,9.73l-1.31,4.79-1.5,4.7a209.88,209.88,0,0,1-15.52,35.79,241.77,241.77,0,0,1-21.31,32.57,214.77,214.77,0,0,1-27,28.92,176.13,176.13,0,0,1-33.55,23.67,131.94,131.94,0,0,1-41.45,14c-.92.19-1.88.26-2.83.37l-2.86.29-2.86.27c-.95.1-1.91.18-2.86.19-1.92,0-3.84.15-5.74.14s-3.8-.09-5.69-.16a131.09,131.09,0,0,1-22-3.16,151.78,151.78,0,0,1-40-15.46,154.73,154.73,0,0,1-18-11.68,139,139,0,0,1-16.57-14.59,105.47,105.47,0,0,1-14.63-19c-.57-.88-1.09-1.89-1.62-2.87s-1-1.95-1.55-2.95l-1.44-3.19-.7-1.6L48.56,296c-.42-1.16-.83-2.33-1.23-3.49s-.7-2.53-1-3.8c-.16-.64-.33-1.26-.47-1.92l-.37-2.06c-.22-1.4-.48-2.73-.61-4.2a52.9,52.9,0,0,1,1.57-18.88c.5-1.65,1-3.28,1.64-4.9s1.4-3.11,2.16-4.64a40.1,40.1,0,0,1,2.54-4.25c.44-.69.9-1.36,1.36-2s.94-1.19,1.41-1.79L57,242.29c.49-.59,1-1.16,1.46-1.62,1-1,1.94-2,2.94-2.91s1.9-1.66,2.86-2.48l1.45-1.18,1.36-1c.91-.67,1.85-1.36,2.75-2l2.6-1.7,1.31-.83,1.24-.73,2.48-1.46c6.45-3.58,12.18-6.25,17.6-8.84s10.45-5,15.3-7.42a184.09,184.09,0,0,0,26.55-16,133.61,133.61,0,0,0,11.59-9.44c1.88-1.62,3.61-3.42,5.41-5.14.89-.87,1.72-1.8,2.59-2.7s1.75-1.78,2.55-2.74c1.64-1.89,3.34-3.74,4.88-5.74l2.38-3,2.39-3.16c3.08-4.19,6.05-8.5,8.75-12.85a134.56,134.56,0,0,0,7.19-13,74.85,74.85,0,0,0,4.76-12.2,30.07,30.07,0,0,0,1.29-8.58,10.67,10.67,0,0,0-.14-1.65c0-.12,0-.12,0-.2s0-.15,0-.2a.36.36,0,0,1,0-.11l-.06-.1c0-.09-.09-.17-.14-.27a6,6,0,0,0-1.69-1.65,19.67,19.67,0,0,0-3.75-2.06,48.9,48.9,0,0,0-11.66-3.11c-2.2-.34-4.5-.58-6.73-.71-1.13-.07-2.16-.12-3.19-.09h-1.55c-.51,0-1,.06-1.51.08a47.32,47.32,0,0,0-5.9.66,44.79,44.79,0,0,0-5.74,1.47,66,66,0,0,0-12.23,5.77c-2.21,1.31-4.52,2.76-7,4.33s-5.06,3.28-7.85,5a110.12,110.12,0,0,1-19.34,9.86c-1.81.71-3.71,1.3-5.6,1.88s-3.84,1.06-5.81,1.41A71.71,71.71,0,0,1,79,137.3,82.37,82.37,0,0,1,56.65,135a94.47,94.47,0,0,1-20.18-7.35,86.31,86.31,0,0,1-18-11.93,67.51,67.51,0,0,1-8-8.15,49.94,49.94,0,0,1-6.6-10.27A37.67,37.67,0,0,1,1.15,71.36,54.32,54.32,0,0,1,11.24,51.47c8.6-10.84,18.78-18.7,29.4-25.28A193.7,193.7,0,0,1,73.76,10.1C79.46,8,85.19,6.06,91,4.37S102.59,1.25,108.45,0Z"/></g></g></svg>