<svg xmlns="http://www.w3.org/2000/svg" viewBox="0 0 499.04 563.01"><defs><style>.cls-1{fill:#939598;}</style></defs><title>Asset 3</title><g id="Layer_2" data-name="Layer 2"><g id="Layer_1-2" data-name="Layer 1"><path class="cls-1" d="M133.1,0c-3.19,2.87-6.46,5.61-9.58,8.53s-6.27,5.77-9.37,8.67C108,23.09,102,29.05,96.3,35.22a347.62,347.62,0,0,0-31.55,38.7c-4.7,6.74-9,13.66-13,20.67a169,169,0,0,0-10.15,21.34c-.65,1.8-1.37,3.58-1.92,5.38L38.83,124l-.75,2.67c-.56,1.77-.87,3.52-1.32,5.27l-.47,2.59-.23,1.28-.16,1.27a46.4,46.4,0,0,0-.39,9.5l.09,1.07a4.86,4.86,0,0,0,.12,1l.32,2c.17.6.33,1.19.47,1.78s.39,1.11.56,1.66a27.51,27.51,0,0,0,9,11.44,43.41,43.41,0,0,0,15.13,7.28,47.66,47.66,0,0,0,17.11,1.36,41.23,41.23,0,0,0,8-1.66c.62-.24,1.26-.38,1.86-.64s1.21-.49,1.81-.72,1.17-.56,1.76-.82c.29-.14.58-.26.87-.41l.85-.49c1.15-.58,2.26-1.36,3.39-2.06s2.23-1.57,3.35-2.52a75.24,75.24,0,0,0,6.79-6.28c4.61-4.74,9.35-10.64,14.5-17.17s10.84-13.71,17.58-21a155.09,155.09,0,0,1,11.09-10.9,121.91,121.91,0,0,1,13.27-10.19A105.79,105.79,0,0,1,178.8,90.8l2-.92,2.07-.82,4.17-1.6,4.24-1.36c1.4-.45,2.85-.88,4.27-1.23a122.87,122.87,0,0,1,16.81-3.14c2.87-.33,5.79-.56,8.81-.66s6.1-.09,9.3.11a81,81,0,0,1,20.35,3.74,67.19,67.19,0,0,1,21.41,11.53c.83.68,1.67,1.37,2.48,2.09s1.59,1.49,2.37,2.25c1.58,1.5,3,3.17,4.4,4.81a66.21,66.21,0,0,1,7,10.52c.93,1.78,1.85,3.61,2.68,5.42s1.41,3.55,2.07,5.34l.48,1.35.38,1.29.73,2.59.7,2.6c.21.85.35,1.66.53,2.49.32,1.65.66,3.34.91,5l.59,4.75c.21,1.62.26,3.09.36,4.62s.21,3.07.2,4.5c0,2.9.06,5.85-.1,8.6-.08,1.38-.11,2.82-.23,4.16l-.34,4c-.11,1.37-.27,2.66-.44,4l-.49,3.92c-.4,2.52-.76,5.12-1.25,7.59s-.94,5-1.49,7.37l-.8,3.63-.88,3.56A360.48,360.48,0,0,1,274,256.25c-3.58,8.45-7.33,16.89-11.45,25.06l-3.17,6.26-1.6,3.13-1.69,3.1L252.69,300c-1.11,2.08-2.38,4.08-3.56,6.12-4.71,8.19-10,16.11-15.41,23.91-5.58,7.72-11.31,15.37-17.5,22.63a380.3,380.3,0,0,1-39.6,40.11c-6.82,6.05-13.69,11.72-20.07,17.08s-12.3,10.41-16.83,14.89c-1.21,1.14-2.13,2.16-3.13,3.19-.54.53-.86,1-1.29,1.46l-.62.7a7.12,7.12,0,0,0-.55.67c-.31.41-.63.83-.95,1.23l-.25.3-.17.27-.33.52c-.58.72-.72,1.25-1.11,1.78a7.08,7.08,0,0,1-.29.67c0,.11-.14.21-.16.31a2.86,2.86,0,0,1-.07.28c0,.18-.19.34-.2.53a1.37,1.37,0,0,1-.13.52,11.58,11.58,0,0,0-.16,3c0,.16,0,.31,0,.47s.06.34.08.51a9.67,9.67,0,0,1,.1,1.07c.09.39.19.79.26,1.19l.1.6.2.65c.14.44.25.88.36,1.33l.53,1.41c.26.94.84,1.95,1.23,2.95a58.11,58.11,0,0,0,8.5,12.66l.66.8.73.76,1.44,1.56c1,1,2.06,2,3.07,3s2.17,1.94,3.3,2.87l1.72,1.38c.57.46,1.14.93,1.76,1.34a89.15,89.15,0,0,0,15.22,9.07,77.52,77.52,0,0,0,16.26,5.54,64.29,64.29,0,0,0,16.05,1.44,55.55,55.55,0,0,0,7.67-.85,53.17,53.17,0,0,0,7.6-1.91,82.86,82.86,0,0,0,16.23-7.53c11.08-6.56,22.21-15.82,32.6-26.4a302.54,302.54,0,0,0,29.38-35.26,427,427,0,0,0,25.5-40,477.15,477.15,0,0,0,21.45-42.93,409.37,409.37,0,0,0,16.77-44.78c2.3-7.57,4.36-15.18,6.07-22.76A213.3,213.3,0,0,0,369,245.76c.45-3.72.67-7.37.82-11,0-1.81.09-3.43,0-5.75s0-4.71,0-7.19a112.4,112.4,0,0,1,4.59-30.45,87.65,87.65,0,0,1,14.45-28.14,105,105,0,0,1,21.43-20.86,92.41,92.41,0,0,1,26.53-13.77,64,64,0,0,1,15.47-3,47.21,47.21,0,0,1,16.61,1.78,37.58,37.58,0,0,1,14.85,8.48,40.15,40.15,0,0,1,5.42,6.18c.75,1.1,1.47,2.21,2.17,3.32s1.19,2.29,1.77,3.43a56.41,56.41,0,0,1,4.5,13.95c.54,2.32.72,4.65,1,7,.13,1.15.15,2.31.23,3.45s.17,2.29.13,3.43a106.92,106.92,0,0,1-3.34,26.48,118.92,118.92,0,0,1-9.06,24.31l1.22-6.29c.3-2.12.64-4.21.92-6.3s.48-4.2.64-6.29.3-4.19.31-6.28a102.57,102.57,0,0,0-2.1-24.41c-.17-1-.48-1.93-.71-2.89s-.47-1.91-.76-2.84c-.65-1.84-1.15-3.72-1.95-5.45a41.15,41.15,0,0,0-5.29-9.52c-.54-.67-1.05-1.35-1.59-2s-1.17-1.15-1.73-1.73a21.06,21.06,0,0,0-3.62-2.78,18,18,0,0,0-7.89-2.59c-5.52-.52-11.81,1.24-17.84,4.38a68.92,68.92,0,0,0-16.82,12.73A76.56,76.56,0,0,0,416.76,182a52.77,52.77,0,0,0-6.14,18.25,76.84,76.84,0,0,0-.1,20.18c.2,1.78.46,3.57.74,5.56s.58,4.54.84,7c.44,4.89.74,9.75.79,14.53a237.56,237.56,0,0,1-1.33,28.15c-.93,9.22-2.33,18.28-4,27.24a421.82,421.82,0,0,1-13.69,52.55,483.5,483.5,0,0,1-19.79,50.37A445.87,445.87,0,0,1,348.33,454q-7.23,11.76-15.45,23.11c-5.49,7.56-11.28,15-17.6,22.23-12.64,14.4-26.89,28.25-44.54,40-2.18,1.48-4.5,2.87-6.77,4.28s-4.66,2.75-7.15,4a139.27,139.27,0,0,1-15.37,7A128.76,128.76,0,0,1,207,562.52a131,131,0,0,1-34.74-1.62,149.81,149.81,0,0,1-32.32-9.69,156.74,156.74,0,0,1-29-16.19c-1.15-.78-2.26-1.61-3.36-2.46L104.25,530c-2.19-1.72-4.31-3.55-6.45-5.35s-4.16-3.78-6.17-5.77l-3-3-1.48-1.53-1.44-1.6-2.85-3.23c-1-1.07-1.83-2.26-2.74-3.38s-1.82-2.28-2.69-3.45l-2.57-3.63c-1.74-2.37-3.29-5-4.88-7.56-.8-1.27-1.51-2.67-2.26-4s-1.49-2.68-2.16-4.11c-1.33-2.88-2.73-5.65-3.85-8.74-.59-1.52-1.17-3-1.72-4.56l-1.48-4.79c-.23-.8-.48-1.59-.7-2.41l-.58-2.51c-.38-1.67-.76-3.35-1.09-5s-.53-3.5-.77-5.26c-.11-.88-.24-1.74-.32-2.64l-.17-2.72a84.77,84.77,0,0,1,9-44.1,97.37,97.37,0,0,1,5.38-9.19l1.42-2.14.72-1,.72-1L75,383.42c.49-.66,1-1.22,1.46-1.8l1.47-1.71c1-1.12,2-2.34,2.93-3.32l2.91-3.08.73-.77.71-.69,1.43-1.4c7.63-7.42,14.74-13.31,21.41-18.88S121,341.06,126.94,335.9A319.75,319.75,0,0,0,159.49,304c5-5.56,9.58-11.46,14.11-17.42l3.28-4.56,1.65-2.28,1.57-2.35,3.18-4.66c1-1.58,2-3.19,3-4.78s2.07-3.17,3-4.82l2.89-4.91,1.46-2.46,1.37-2.52,2.75-5c3.73-6.92,7.23-13.88,10.56-21s6.41-14.21,9.21-21.33,5.38-14.2,7.46-21.14l.78-2.6.7-2.56c.49-1.73.88-3.4,1.29-5.08s.72-3.3,1.11-5l.44-2.39c.15-.79.31-1.6.4-2.35l.35-2.29c.12-.77.15-1.46.25-2.2.2-1.49.23-2.8.33-4.15.07-.7,0-1.24,0-1.87a16.83,16.83,0,0,0,0-1.75q0-.78-.06-1.59c0-.48-.12-.87-.14-1.32,0-.21,0-.47-.06-.64s-.07-.32-.1-.49,0-.33-.07-.5l0-.25,0-.16a2.28,2.28,0,0,1-.11-.66.58.58,0,0,1-.07-.32c0-.4.29-.11.5-.15s.08-.31-.76-.8a17.11,17.11,0,0,0-4.59-1.31,30.65,30.65,0,0,0-3.45-.35c-1.23-.08-2.56-.09-3.93-.05a62,62,0,0,0-8.37.84c-1.29.19-2.5.57-3.78.79l-1.85.52-.93.25-.9.33a45.48,45.48,0,0,0-7.29,3.15,79.28,79.28,0,0,0-15.15,11c-2.63,2.35-5.33,5-8.1,7.78s-5.64,5.83-8.64,8.94a265.55,265.55,0,0,1-20.64,19.79A112.42,112.42,0,0,1,129,207c-2.35,1.52-4.91,2.9-7.44,4.27s-5.25,2.56-8,3.62l-2,.81c-.7.26-1.41.48-2.11.72-1.42.46-2.81,1-4.24,1.34l-4.31,1.1c-1.43.37-2.89.59-4.33.87A89,89,0,0,1,79.17,221a90.77,90.77,0,0,1-32.94-7,83.47,83.47,0,0,1-28.14-19.08A69.34,69.34,0,0,1,7.5,180.43a61.4,61.4,0,0,1-6.38-17.29c-.26-1.53-.55-3.07-.72-4.59s-.27-3-.38-4.54,0-2.93,0-4.39c0-.74,0-1.45.09-2.15l.16-2.11a78.29,78.29,0,0,1,3.06-15.73l.54-1.85L4.47,126c.41-1.19.81-2.38,1.24-3.55.94-2.28,1.79-4.62,2.83-6.79l1.52-3.3,1.62-3.19C12.75,107,13.94,105,15.1,103A180.05,180.05,0,0,1,30.74,80.31a249.19,249.19,0,0,1,17.88-20A331.16,331.16,0,0,1,133.1,0Z"/></g></g></svg>