<svg xmlns="http://www.w3.org/2000/svg" viewBox="0 0 542.57 640.1"><defs><style>.cls-1{fill:#939598;}</style></defs><title>Asset 7</title><g id="Layer_2" data-name="Layer 2"><g id="Layer_1-2" data-name="Layer 1"><path class="cls-1" d="M118.09,5.92q-26,25.88-52,51.73c-9,9-17.94,19.09-21,31.79a38.91,38.91,0,0,0,11.51,37.85,47.77,47.77,0,0,0,36.44,11.92c13.52-1.45,25.21-6.69,37.52-12.18l34.15-15.25,16.18-7.22,7.19-3.21c1.4-.63,2.84-1.23,4.23-1.89s.84-.38-1.73.71c.66-.28,1.33-.55,2-.81a105.26,105.26,0,0,1,11.72-3.91c.59-.16,6.69-2,7-1.5.08.11-5.45.43-1.34.24,1.36-.06,2.71-.16,4.08-.14a21.73,21.73,0,0,0,2.67.12c-.9,1-4.54-1-1.64-.18a16.92,16.92,0,0,0,3.08.83c2.27.08-4.1-2.58-.87-.34.26.18,2.22,1.33,2.18,1.36-.61.46-3.35-3-1.16-.71,3,3-1-2.92-.24-.54a17,17,0,0,1,1,1.7q1.16,2.38,0-.09l-.57-1.26a23.35,23.35,0,0,1,.68,2.52c-.38-.11-.2-5.45-.22-1.6,0,.88,0,1.79,0,2.67.1,3.86-.13-1.35.34-1.48-.77.2-.6,6.57-1.75,6.68-.1,0,2.37-4.71.44-1.09-.66,1.25-1.3,2.49-2.06,3.68a10.85,10.85,0,0,1-1.58,2.32l1.51-2c-.45.53-.92,1-1.4,1.53-.66.69-1.35,1.35-2.06,2-1.11,1-2.76,3.54-.13.25-2.73,3.41-9.29,5.52-13.12,7.37-2.93,1.42,4.67-1.71-.23.07-1,.37-2,.77-3,1.14-2,.75-4.06,1.46-6.1,2.16-5,1.72-10.1,3.35-15.1,5.16-10.21,3.71-20.28,7.93-30.11,12.56a306.3,306.3,0,0,0-49.55,29.29c-37.26,27-68.93,60.95-92.27,100.7C-5.48,283.12,5.47,299,20.8,300c66.74,4.46,130.87-19,191-45.14,14.57-6.35,29-12.92,43.56-19.37,7.27-3.23,14.55-6.44,21.86-9.57l2.53-1.08c.24-.1,3-1.29.9-.39s.66-.27.9-.37l2.54-1.06q5.92-2.46,11.88-4.82c29.05-11.54,59-21.32,89.88-26.37.84-.13,1.68-.24,2.51-.39,2.31-.43-2,.25-2,.25a45.84,45.84,0,0,0,5.05-.48,92.3,92.3,0,0,1,9.41-.05c3.93.13-3.67-.94.1,0,1.54.37,3.11.91,4.67,1.21,2.05.39-1.61-.67-1.8-.86a9.71,9.71,0,0,0,1.79.91c.29.16,1.44,1.07,1.73,1-.73.09-3.14-3-1-.74.46.48.95,1,1.45,1.48,1.63,1.45-1.15-1.16-1.07-1.42a10.54,10.54,0,0,0,1.06,1.78c1.26,1.62-.74-1.49-.69-1.86,0,.25,1.36,6.35.88,2.48-.42-3.31-.12,1.76-.11,2.73,0,3.81.95-3.68,0,.1-.35,1.41-.66,2.83-1.09,4.22-.12.4-1,2.7-1,2.8-.07-.11,1.72-3.61.64-1.52-.8,1.57-1.53,3.15-2.4,4.68-.75,1.3-1.55,2.58-2.39,3.82-.41.62-.87,1.21-1.28,1.82-1.31,1.94.88-1.3,1-1.29-1-.12-6.23,6.77-7.28,7.8q-3.28,3.16-6.81,6.08c-.59.48-1.19.94-1.77,1.43-1.8,1.49,1.14-.87,1.19-.93-1.24,1.41-3.38,2.46-4.95,3.52a160.78,160.78,0,0,1-17.11,10c-2.74,1.41-5.52,2.74-8.33,4-1.41.64-2.83,1.26-4.25,1.89-.44.19-2.89,1.2-.39.17s-.64.25-1.12.45c-26,10.52-53.07,17.92-79.12,28.23a626.55,626.55,0,0,0-161.23,92.25c-11.63,9.07-23.44,18.35-34,28.68C64.13,408,53.12,424,54,441.75a46.57,46.57,0,0,0,25.67,39.08c13.25,6.76,27.69,8.93,42.41,9.52,28.64,1.15,57.54-2.8,85.38-9.33,54.32-12.75,105.4-35.9,158.13-53.63,26-8.75,52.54-16.26,79.71-20.33l3.14-.45c2.48-.37-1.57.23-1.58.21s4.32-.51,4.72-.56q5.13-.57,10.28-.95c6.88-.51,13.79-.78,20.69-.75,2.86,0,5.68.21,8.53.43,3.87.3-4.07-.86-.28,0,1.5.34,3,.6,4.49,1,1.25.33,2.47.74,3.71,1.13,4.36,1.36-2.67-1.72.24.14.5.31,2.61,1.93,3.12,1.87-.28,0-3.07-2.93-1.86-1.43a9.54,9.54,0,0,0,1.67,1.63c1.52,1-1.42-1.53-1.42-1.95,0,.47.86,1,.93,1.48.3,2.3-.7-2.79-.82-2.27-.08.34.48,1.38.56,1.74,1.18,5,.21-3,0,.64,0-.05,1-4.29.3-2.17-.28.81-.53,1.76-.73,2.6-.5,2.1.56-1.71.76-1.8-.27.12-.85,1.56-1,1.84-.52.88-3.18,3.8-1.28,2s.11-.22-.28.17c-.71.71-1.38,1.46-2.1,2.17-1.27,1.25-2.61,2.44-4,3.59-.26.23-1.46,1.48-1.79,1.47-.06,0,3.17-2.27,1.14-.93-1.26.84-2.46,1.76-3.72,2.6-3.65,2.45-7.38,4.8-11.08,7.18l-21.81,14.11L369.35,497.7c-13.2,8.53-29.57,17.08-36.68,31.9-9.48,19.76-2,40.47,15.63,52.51,15.09,10.33,33.53,8.58,50.81,8.4,3.34,0,6.68,0,10,.27,1.42.09,3.67-.1,5,.46-.07,0-3.84-.72-1.41-.14,1.07.26,2.17.4,3.24.63,1.88.41,3.73.89,5.56,1.47.77.24,1.54.58,2.32.78,2.4.63-1.16-.56-1.17-.56,1.21,0,3.32,1.63,4.36,2.23.71.41,1.41.85,2.1,1.3,1,.66,2.17,2.39.84.52s-.49-.38.05.21,1.35,1.38,2,2c2.65,2.63-1.7-2.9.28.28.76,1.2,1.47,2.42,2.19,3.65,1.9,3.24-.92-3.36.13.22.25.86.51,3.42,1.08,4-.08-.08-.28-4.36-.25-2.12,0,.91.11,1.81.1,2.72a8.72,8.72,0,0,0-.08,2c-.09-.27,1-4.14.22-2.17-.53,1.37-2.4,5.82,0,.85-4.69,9.75-3,22.85,7.44,28.36,9.27,4.9,23.34,3,28.36-7.43a51,51,0,0,0-3-50.45C459,565,443.91,555.46,427,551.75c-16.68-3.64-32.92-1.62-49.73-2.46-.35,0-3.33-.44-.89,0s-.56-.16-.86-.24c-.61-.17-4.51-1.69-4.89-1.44.5-.33,4.32,2.41,1.07.27a21.58,21.58,0,0,0-1.84-1.13c-2-1,1.35.8,1.34,1.08,0-.27-1.79-1.72-2.05-2-2.53-2.47,1.4,2.86,0-.3l.47,1.24c.61,1.66.63,1.64,0-.06-.13,0-.76-3.74-.14.07.49,2.94.16.73.21,0,0,.23-1.08,4-.22,2a7.21,7.21,0,0,0,.6-2c.26,2-2.26,2.6-.25,1.26.18-.12,2.08-2.61,0-.18s.2-.08.71-.6c1-1.06,2.18-2,3.23-3,1.63-1.58-1.06,1-1.28.93.27,0,1.56-1.13,1.81-1.31,1.67-1.17,3.38-2.29,5.09-3.4l21.82-14.11,43.63-28.21,44.47-28.75c13.51-8.73,28.88-16.9,39.64-29.09C541.7,425.91,547.19,407,538,389c-6.86-13.4-21.88-21.36-36.21-24-28.59-5.21-59.76-.17-87.86,5.75-55.44,11.68-107.43,35.05-160.77,53.46-26.36,9.09-53.22,17.09-80.77,21.65-1.55.26-3.11.5-4.67.74-1,.15-2.1.38-3.12.45.09,0,4-.5,1.61-.22-3.39.4-6.78.81-10.18,1.12q-10.6,1-21.27,1.11c-6.74.08-13.52,0-20.24-.61-.81-.07-5.28-.59-1.87-.15s-1.58-.32-2.57-.52a75.21,75.21,0,0,1-8.44-2.3c-4.42-1.47,2.6,1.58-.5-.17-1.12-.63-2.27-1.17-3.36-1.85-.52-.32-1-.76-1.57-1-1.83-.93,1.72,1.12,1.73,1.36a22.24,22.24,0,0,0-3.4-3.46c-.36-.15,3.35,3,1.49,1.73-.3-.2-.61-1.53-.91-1.58.31.05,1.2,4.14.87,2.09a13.22,13.22,0,0,0-.57-1.82c-1.23-3.56-.19,3.12,0-.5.18-4.09,0,.9-.31,1.09.31-.22.6-2.45.71-2.89.84-3.62-1.64,2.63.2-.68.76-1.38,1.5-2.75,2.36-4.07a15.85,15.85,0,0,1,1.82-2.63c-.12.11-2.35,2.72-.72,1,1.31-1.38,2.5-2.88,3.82-4.26a217.09,217.09,0,0,1,16.16-14.61q8.91-7.56,18.11-14.78l2-1.6-.77.59c1.38-1.05,2.75-2.1,4.14-3.14q4.83-3.66,9.75-7.2,18.59-13.45,38.14-25.5a618,618,0,0,1,80.61-41.83l2.39-1c-.24.1-3.17,1.31-1,.42l4.81-2q5.61-2.28,11.27-4.45,10.4-4,20.91-7.57c13.1-4.48,26.32-8.65,39.33-13.39,27.56-10,55-22.57,75.89-43.71,10.85-11,20.36-25,23.07-40.42,3.4-19.4-2.38-37.51-18.75-49.2-12.32-8.79-29.14-9.89-43.69-8.08a333.1,333.1,0,0,0-49,10.1c-31.94,9-62.65,21.85-93,35.18-14.83,6.52-29.58,13.23-44.4,19.77q-5,2.24-10.09,4.42l-5.95,2.57-2.56,1.08c-3,1.28,2.83-1.16-.18.07-7.45,3.06-14.9,6.12-22.43,9-15.31,5.86-30.84,11.17-46.65,15.54q-11.53,3.19-23.27,5.66Q82.33,255,76.45,256q-2.72.46-5.43.87l-2.72.4c3-.44,1-.14-.84.08a252.62,252.62,0,0,1-46.66,1.27l17.9,31.2Q46.2,277,54.88,265c1.22-1.68,2.46-3.34,3.71-5,2.26-3,0,0-.39.5.73-1.06,1.61-2.05,2.42-3.05q4.63-5.77,9.54-11.31,9.56-10.78,20.1-20.65,4.83-4.53,9.86-8.84c2-1.7,4-3.36,6-5l2.42-2c.69-.54,4.55-4,.71-.6,6.83-6.14,15.26-11.16,23-16q12.51-7.92,25.73-14.61,5.91-3,11.95-5.71l3.56-1.58c1.43-.64,2.26-1.87-.66.26,1.92-1.4,5-2.06,7.23-2.91,9.16-3.54,18.58-6.34,27.78-9.79,22.6-8.45,43.14-21.61,50.51-45.91,7.41-24.45-4.83-50.54-29.68-58.13C207.05,48,184.78,57.7,165.4,66.35L132.15,81.19,116,88.42,107.89,92l-3.42,1.52c-5.36,2.43,3.9-1.43-1.61.71a82.88,82.88,0,0,1-8.39,2.86c-1.14.31-2.29.53-3.43.82-2.4.42-2.3.42.31,0L89.6,98H87.83c-1.83-.14-1.83-.1,0,.12s1.84.26,0-.09a19.9,19.9,0,0,1-2-.55c-2.63-.44,4.15,2.58.45.26l-1.2-.67c-1.5-1-1.55-1-.15.08L86,98A21.19,21.19,0,0,1,84,96.11l1.59,2.12A18.64,18.64,0,0,1,84.29,96c.37-.13,1.67,5,.79,1.15.27,2.66.39,3.21.37,1.63s-.07-1-.33,1.73c.43-.13.37-2.53.85-2.95-1,2.29-1.18,2.74-.49,1.37.37-.72.76-1.42,1.19-2.1.58-.93,1.21-1.81,1.83-2.71-2.67,3.88.21-.12,1-1,8.93-10,19-19.08,28.44-28.51l29.51-29.36c7.7-7.66,8.23-21.76,0-29.32s-21.1-8.17-29.32,0Z"/></g></g></svg>