<?xml version="1.0" encoding="utf-8"?>
<!-- Generator: Adobe Illustrator 27.9.0, SVG Export Plug-In . SVG Version: 6.00 Build 0)  -->
<svg version="1.1" id="Layer_1" xmlns="http://www.w3.org/2000/svg" xmlns:xlink="http://www.w3.org/1999/xlink" x="0px" y="0px"
	 viewBox="0 0 84 48" style="enable-background:new 0 0 84 48;" xml:space="preserve">
<style type="text/css">
	.st0{fill:#FF9700;}
	.st1{fill:#006ECD;}
	.st2{fill:#EF151E;}
	.st3{fill:#FFFFFF;}
</style>
<path class="st0" d="M42,17.6c-4.8-1.9-9.7-1.7-11,0.5c-1.3,2.3,0.6,7.6,4,12s8.3,4.3,11-0.6C48.6,24.8,46.8,19.5,42,17.6z"/>
<path class="st1" d="M17.3,19.2c4.3,2.9,9.1,3.8,10.8,1.9c1.7-1.9,1.1-7.5-1.2-12.6c-2.4-5.1-7.2-6-10.8-1.9
	C12.4,10.7,13,16.2,17.3,19.2z"/>
<path class="st2" d="M32.7,34.6c-0.7-5.2-3.2-9.3-5.8-9.3s-6.4,4.2-8.6,9.4s0.3,9.3,5.8,9.3C29.7,44,33.4,39.8,32.7,34.6z"/>
<path class="st3" d="M13.1,21.2c-0.9,0-1.5,0.5-1.5,1.3v0.8h2.1c0,0,0.1,6.9,0,7.6s-0.3,1.9-1.5,2.5C11,34,11,34.5,11,34.9
	c-0.1,0.6,0,0.7,0.4,0.5c1.7-0.4,3.4-1.1,4.3-2.7c0.5-0.9,0.7-1.9,0.7-3.3v-6.1c0.9,0,1.5-0.6,1.5-1.3v-0.8
	C17.9,21.2,13.1,21.2,13.1,21.2z"/>
<path class="st3" d="M10.8,30.5c0,0-1.7,2.4-4.9,2.4c-3.3,0-5.9-2.6-5.9-6s2.5-6,5.9-6c3.2,0,4.9,2.4,4.9,2.4s-0.9,1-1.7,1
	c-0.4,0-0.7-0.2-1.1-0.4c-0.5-0.3-1-0.6-2-0.6c-1.9,0-3.5,1.7-3.5,3.7S4,30.7,6,30.7c1-0.1,1.5-0.4,2-0.7c0.3-0.2,0.6-0.4,1.1-0.4
	C10.1,29.6,10.8,30.5,10.8,30.5z"/>
<path class="st3" d="M83.4,21.2v10.2c0,0.7-0.6,1.1-1.3,1.1h-1v-6.9l-1.9,6.2c-0.2,0.5-0.8,0.7-1.4,0.7h-0.5L75,25.6v5.7
	c0,0.8-0.6,1.1-1.3,1.1h-1v-10c0-0.7,0.6-1.1,1.3-1.1h1.7l2.4,7.5l2.2-6.8c0.2-0.5,0.6-0.7,1.3-0.7L83.4,21.2"/>
<path class="st3" d="M57.9,23.3c0.6,0,1.1-0.5,1.1-1.1v-1h-7.7c-0.6,0-1.1,0.5-1.1,1.1v10.2h7.7c0.6,0,1.1-0.6,1.1-1.2v-0.9h-5.4
	c-0.9,0-1,0.4-1,0.4v-3h5c0.6,0,1.1-0.5,1.1-1.1v-1h-5.1c-0.9,0-1,0.4-1,0.4v-2.8H57.9L57.9,23.3z"/>
<path class="st3" d="M69.1,21.2c-0.5,0-0.9,0.6-0.9,1.1v5.9l-5.3-7h-1c-0.5,0-1,0.5-1,1.1v10.2h1.4c0.5,0,1-0.5,1-1.1v-6.5l5.6,7.6
	h0.7c0.5,0,1-0.5,1-1.1V21.2H69.1L69.1,21.2z"/>
</svg>
