<?xml version="1.0" encoding="utf-8"?>
<!-- Generator: Adobe Illustrator 22.0.1, SVG Export Plug-In . SVG Version: 6.00 Build 0)  -->
<svg version="1.1" id="레이어_1" xmlns="http://www.w3.org/2000/svg" xmlns:xlink="http://www.w3.org/1999/xlink" x="0px"
	 y="0px" viewBox="0 0 1013 916" style="enable-background:new 0 0 1013 916;" xml:space="preserve">
<style type="text/css">
	.st0{clip-path:url(#SVGID_2_);}
	.st1{clip-path:url(#SVGID_4_);}
	.st2{clip-path:url(#SVGID_6_);}
	.st3{fill:#F29141;}
	.st4{fill:#FFFF66;}
	.st5{fill:#F0F0F0;}
	.st6{opacity:0.3;}
	.st7{clip-path:url(#SVGID_10_);}
	.st8{clip-path:url(#SVGID_11_);}
	.st9{clip-path:url(#SVGID_12_);}
	.st10{clip-path:url(#SVGID_14_);}
</style>
<g>
	<g>
		<g>
			<defs>
				<polygon id="SVGID_1_" points="-976.8,-78.7 1076.5,-29.5 1076,782.9 -977.3,733.7 				"/>
			</defs>
			<clipPath id="SVGID_2_">
				<use xlink:href="#SVGID_1_"  style="overflow:visible;"/>
			</clipPath>
			<g class="st0">
				<g>
					<g>
						<g>
							<g id="main-object2" transform="translate(-907)">
								<g id="main-object2-2">
									<defs>
										<rect id="SVGID_3_" x="82" y="186.3" width="813.2" height="662.8"/>
									</defs>
									<clipPath id="SVGID_4_">
										<use xlink:href="#SVGID_3_"  style="overflow:visible;"/>
									</clipPath>
									<g id="main-object2-bg" transform="translate(1033.446 -115.714)" class="st1">
										<g>
											<g>
												<g id="그룹_65">
													<g id="그룹_64">
														<defs>
															<rect id="SVGID_5_" x="82" y="186.3" width="813.2" height="662.8"/>
														</defs>
														<clipPath id="SVGID_6_">
															<use xlink:href="#SVGID_5_"  style="overflow:visible;"/>
														</clipPath>
														<g class="st2">
															<path id="패스_309" class="st3" d="M278.3,682.6c-3.3,0-5.9,2.5-5.9,5.6c0,3.2,2.7,5.6,5.9,5.6
																c3.3,0,5.9-2.5,5.9-5.6l0,0C284.2,685.2,281.6,682.6,278.3,682.6"/>
															<path id="패스_309_00000168095173054478653870000002318633554903084727_" class="st3" d="M394.2,717.5
																c-3.3,0-5.9,2.5-5.9,5.6c0,3.2,2.7,5.6,5.9,5.6c3.3,0,5.9-2.5,5.9-5.6l0,0C400.1,720.1,397.5,717.5,394.2,717.5"/>
															<path id="패스_309_00000052815302596707312000000003900158929995321226_" class="st3" d="M661.5,428
																c-3.3,0-5.9,2.5-5.9,5.6c0,3.2,2.7,5.6,5.9,5.6c3.3,0,5.9-2.5,5.9-5.6l0,0C667.4,430.5,664.8,428,661.5,428"/>
															<path id="패스_310" class="st4" d="M289.5,773.4c-5,0-9.1,3.8-9.1,8.6c0,4.7,4.1,8.6,9.1,8.6c5,0,9.1-3.8,9.1-8.6
																C298.6,777.2,294.6,773.4,289.5,773.4"/>
															<path id="패스_311" class="st4" d="M186.7,472c-1.8,0-3.4,1.4-3.4,3.1c0,1.8,1.5,3.2,3.4,3.2
																c1.8,0,3.4-1.4,3.4-3.1l0,0C190,473.4,188.6,472,186.7,472"/>
															<path id="패스_312" class="st4" d="M255.3,300.9c-1.8,0-3.4,1.4-3.4,3.1c0,1.8,1.5,3.2,3.4,3.2
																c1.8,0,3.4-1.4,3.4-3.1l0,0C258.6,302.4,257.1,300.9,255.3,300.9"/>
															<path id="패스_312_00000148651687236675127630000009333719310585215894_" class="st4" d="M409.5,420
																c-1.8,0-3.4,1.4-3.4,3.1s1.5,3.2,3.4,3.2c1.8,0,3.4-1.4,3.4-3.1l0,0C412.8,421.5,411.3,420,409.5,420"/>
															<path id="패스_314_00000013171560705836924270000010349256652247002793_" class="st5" d="M773.8,508.4L773.8,508.4
																"/>
															<path id="패스_314_00000145057724521927971030000010981116604449021354_" class="st5" d="M773.8,508.4"/>
															<path id="패스_314_00000053508387863793599460000010273609986816193694_" class="st5" d="M556.1,572.7
																c-1.9,0-3.5,1.5-3.5,3.2c0,1.8,1.5,3.2,3.5,3.2s3.5-1.5,3.5-3.2C559.6,574.1,558,572.7,556.1,572.7L556.1,572.7"/>
															<path id="패스_315" class="st5" d="M349.9,267.2c-1.9,0-3.5,1.5-3.5,3.2c0,1.8,1.5,3.2,3.5,3.2
																c2,0,3.5-1.5,3.5-3.2C353.3,268.6,351.8,267.2,349.9,267.2"/>
															<path id="패스_316" class="st5" d="M317.7,430c-1.9,0-3.5,1.5-3.5,3.2c0,1.8,1.5,3.2,3.5,3.2
																c1.9,0,3.5-1.5,3.5-3.2l0,0C321.2,431.5,319.6,430,317.7,430"/>
															<path id="패스_318" class="st5" d="M522.9,435.3c-1.9,0-3.5,1.5-3.5,3.2c0,1.8,1.5,3.2,3.5,3.2
																c1.9,0,3.5-1.5,3.5-3.2l0,0C526.4,436.7,524.8,435.3,522.9,435.3"/>
															<path id="패스_319" class="st5" d="M527.8,373.7c-1.9,0-3.5,1.5-3.5,3.2c0,1.8,1.5,3.2,3.5,3.2
																c1.9,0,3.5-1.5,3.5-3.2l0,0C531.3,375.2,529.7,373.7,527.8,373.7"/>
															<path id="패스_323_00000153698183982131976460000007755534350192188318_" class="st5" d="M323.1,795.5"/>
															<g>
																<g id="그룹_59" transform="translate(584.02 296.834)" class="st6">
																	<g id="그룹_58">
																		<g>
																			<g>
																				<defs>
																					<rect id="SVGID_7_" x="5.8" y="132.5" width="215.4" height="65.8"/>
																				</defs>
																				<defs>
																					<rect id="SVGID_8_" x="5.8" y="132.5" width="215.4" height="65.8"/>
																				</defs>
																				<defs>
																					<rect id="SVGID_9_" x="5.8" y="132.5" width="215.4" height="65.8"/>
																				</defs>
																				<clipPath id="SVGID_10_">
																					<use xlink:href="#SVGID_7_"  style="overflow:visible;"/>
																				</clipPath>
																				<clipPath id="SVGID_11_" class="st7">
																					<use xlink:href="#SVGID_8_"  style="overflow:visible;"/>
																				</clipPath>
																				<clipPath id="SVGID_12_" class="st8">
																					<use xlink:href="#SVGID_9_"  style="overflow:visible;"/>
																				</clipPath>
																				<g id="그룹_57" class="st9">
																					<path id="패스_325" class="st5" d="M2.8,188.5c7.8,0.4,24.5-1.8,42.5-5c18-3.1,37.6-7.2,57.1-11.2
																						c33.9-7.1,67.9-14,101.8-21c4.7-1,9.4-1.9,14.1-2.9c2-1.9,3.9-4,5.9-6c-4.1,1-8.3,1.9-12.5,2.7
																						c-17.6,3.7-32.9,5.8-49.9,9.1c-26.3,5-54.3,12.2-81.3,18.7C53.3,179.3,22.4,186.3,2.8,188.5"/>
																				</g>
																				<g id="그룹_57_00000029007982922481434790000013825501122302928572_" class="st9">
																					<path id="패스_325_00000086677136086831287220000011785846656636986767_" class="st5" d="M9.6,188.4
																						c7.8,0.4,24.5-1.8,42.5-5c18-3.1,37.6-7.2,57.1-11.2c33.9-7.1,67.9-14,101.8-21c4.7-1,9.4-1.9,14.1-2.9
																						c2-1.9,3.9-4,5.9-6c-4.1,1-8.3,1.9-12.5,2.7c-17.6,3.7-32.9,5.8-49.9,9.1c-26.3,5-54.3,12.2-81.3,18.7
																						C60.2,179.2,29.2,186.2,9.6,188.4"/>
																				</g>
																				<g id="그룹_57_00000164494441675171536450000017900422323071238046_" class="st9">
																					<path id="패스_325_00000140735263177735514470000010350849018947864493_" class="st5" d="M117.6,142.8
																						c5.5,5.2,19.4,13.9,34.9,22.8c15.5,8.8,33,18.1,50.3,27.3c30.2,15.9,60.3,32,90.5,47.9
																						c4.2,2.2,8.4,4.4,12.4,6.6c2.9-0.3,5.8-0.5,8.7-0.8c-3.7-1.8-7.4-3.8-11.2-5.7c-15.7-8.2-28.4-16.2-43.4-24.4
																						c-23.1-12.7-48.9-24.8-73.7-36.9C161.6,167.5,133.7,153.4,117.6,142.8"/>
																				</g>
																			</g>
																		</g>
																	</g>
																</g>
																<g id="그룹_63">
																	<g id="그룹_62" transform="translate(70.705 213.732)" class="st6">
																		<g id="그룹_61">
																			<g>
																				<g>
																					<defs>
																						<rect id="SVGID_13_" x="-511.2" y="-149.6" width="75.2" height="120.3"/>
																					</defs>
																					<clipPath id="SVGID_14_">
																						<use xlink:href="#SVGID_13_"  style="overflow:visible;"/>
																					</clipPath>
																					<g id="그룹_60" class="st10">
																						<path id="패스_326" class="st5" d="M-436.9-145.3l-74.4,116.1l70.1-118.4c0.3-1.3,1.6-2.1,3-1.8
																							c1.4,0.3,2.3,1.6,2,2.9C-436.2-146.1-436.4-145.7-436.9-145.3"/>
																					</g>
																				</g>
																			</g>
																		</g>
																	</g>
																</g>
															</g>
														</g>
													</g>
												</g>
											</g>
										</g>
									</g>
								</g>
							</g>
						</g>
					</g>
				</g>
			</g>
		</g>
	</g>
</g>
</svg>
