<?xml version="1.0" encoding="utf-8"?>
<!-- Generator: Adobe Illustrator 22.0.1, SVG Export Plug-In . SVG Version: 6.00 Build 0)  -->
<svg version="1.1" id="레이어_1" xmlns="http://www.w3.org/2000/svg" xmlns:xlink="http://www.w3.org/1999/xlink" x="0px"
	 y="0px" viewBox="0 0 1013 916" style="enable-background:new 0 0 1013 916;" xml:space="preserve">
<style type="text/css">
	.st0{clip-path:url(#SVGID_2_);}
	.st1{clip-path:url(#SVGID_4_);}
	.st2{clip-path:url(#SVGID_6_);}
	.st3{fill:#686767;}
	.st4{fill:#F29141;}
	.st5{fill:#FFFF66;}
	.st6{fill:#F0F0F0;}
	.st7{opacity:0.3;}
	.st8{clip-path:url(#SVGID_10_);}
	.st9{clip-path:url(#SVGID_11_);}
	.st10{clip-path:url(#SVGID_12_);}
	.st11{clip-path:url(#SVGID_14_);}
</style>
<g>
	<g>
		<g>
			<defs>
				<polygon id="SVGID_1_" points="-1032.8,-22.7 1020.5,26.5 1020,838.9 -1033.3,789.7 				"/>
			</defs>
			<clipPath id="SVGID_2_">
				<use xlink:href="#SVGID_1_"  style="overflow:visible;"/>
			</clipPath>
			<g class="st0">
				<g>
					<g>
						<g>
							<g id="main-object2" transform="translate(-907)">
								<g id="main-object2-2">
									<defs>
										<rect id="SVGID_3_" x="26" y="242.3" width="813.2" height="662.8"/>
									</defs>
									<clipPath id="SVGID_4_">
										<use xlink:href="#SVGID_3_"  style="overflow:visible;"/>
									</clipPath>
									<g id="main-object2-bg" transform="translate(1033.446 -115.714)" class="st1">
										<g>
											<g>
												<g id="그룹_65">
													<g id="그룹_64">
														<defs>
															<rect id="SVGID_5_" x="26" y="242.3" width="813.2" height="662.8"/>
														</defs>
														<clipPath id="SVGID_6_">
															<use xlink:href="#SVGID_5_"  style="overflow:visible;"/>
														</clipPath>
														<g class="st2">
															<path id="패스_308" class="st3" d="M730.2,448.8c-47.3-28.7-112.5-17.6-158.6,12.8c-15,10.1-28.9,21.6-41.2,34.5
																c-7.2,7.4-14,15.1-20.5,23.3c-1.6,1.9-3.2,3.9-4.8,6c-1,1.3-2.2,2.7-3.2,4.1c-13.3,17.2-25.4,35.4-37.3,53.5
																c-29.7,45-60.1,91.3-105.3,122.7c-9.3,6.6-22.3,12.4-31.9,6.1c-8.3-5.4-8.6-16.7-6.7-26
																c7.1-34.4,32.3-62.9,59.2-87.2c26.9-24.3,56.6-46.7,76.9-76c20.4-29.4,29.5-68.7,11.8-99.5
																c-15.3-26.6-48.2-41.5-80.3-42.1c-32.1-0.7-63.3,11-90.5,27.2c-27.2,16.2-51.2,36.6-76.1,55.5
																c-15,11.5-36,22.9-52.5,13.1c-13.9-8.2-14.9-27.9-6.6-41.2s22.9-21.6,37.1-29.4c43.8-24.1,87.7-48.3,131.6-72.5
																c13.4-7.4,27.2-15,37.1-26.3s15.4-27.2,10-40.9c-5.4-13.5-20.4-22.1-35.7-23.9s-30.6,2.2-44.9,7.6
																c-53.7,19.8-179.7,151.7-213.1,174.1C63,438.7,40.3,457,38.2,481.8c-2.8,30.9,29.9,56.5,62.8,59.6
																c32.9,3,64.7-10.4,94-24.5c29.3-14.2,59.2-29.8,92.2-31.7s69.9,14.6,77.7,44.8c6.8,26.3-10.5,53.2-33,70
																c-17.6,13.1-38.2,21.9-58.2,31.6c-5.5,2.7-11,5.6-16.4,8.6c-13.7,7.7-26.4,16.7-38.1,26.9
																c-12.4,10.7-23.3,22.6-32.9,35.5c-7.7,10.3-14.4,21.2-19.9,32.5c-0.9,1.8-1.7,3.5-2.5,5.3s-1.5,3.4-2.3,5.2
																c-9.2,22.7-12.8,48-1.1,69.1c11.7,21.1,37,33.6,62.1,35.3c14.6,0.8,29.2-0.9,43.1-5.3c10.3-3.1,20.1-7.2,29.5-11.9
																c43.6-21.9,78.4-56.8,110-92.8c31.6-35.9,61.4-73.7,98.9-104.1c37.6-30.4,84.4-53.5,134.2-53.1
																s100.7,28.8,114.7,73.4c20.6-33.2,34.5-71.1,32.6-109.4C783.8,508.4,764.5,469.7,730.2,448.8"/>
															<path id="패스_309" class="st4" d="M222.3,738.6c-3.3,0-5.9,2.5-5.9,5.6c0,3.2,2.7,5.6,5.9,5.6
																c3.3,0,5.9-2.5,5.9-5.6l0,0C228.2,741.2,225.6,738.6,222.3,738.6"/>
															<path id="패스_309_00000168095173054478653870000002318633554903084727_" class="st4" d="M338.2,773.5
																c-3.3,0-5.9,2.5-5.9,5.6c0,3.2,2.7,5.6,5.9,5.6c3.3,0,5.9-2.5,5.9-5.6l0,0C344.1,776.1,341.5,773.5,338.2,773.5"/>
															<path id="패스_309_00000052815302596707312000000003900158929995321226_" class="st4" d="M605.5,484
																c-3.3,0-5.9,2.5-5.9,5.6c0,3.2,2.7,5.6,5.9,5.6c3.3,0,5.9-2.5,5.9-5.6l0,0C611.4,486.5,608.8,484,605.5,484"/>
															<path id="패스_310" class="st5" d="M233.5,829.4c-5,0-9.1,3.8-9.1,8.6c0,4.7,4.1,8.6,9.1,8.6s9.1-3.8,9.1-8.6
																C242.6,833.2,238.6,829.4,233.5,829.4"/>
															<path id="패스_311" class="st5" d="M130.7,528c-1.8,0-3.4,1.4-3.4,3.1c0,1.8,1.5,3.2,3.4,3.2
																c1.8,0,3.4-1.4,3.4-3.1l0,0C134,529.4,132.6,528,130.7,528"/>
															<path id="패스_312" class="st5" d="M199.3,356.9c-1.8,0-3.4,1.4-3.4,3.1c0,1.8,1.5,3.2,3.4,3.2
																c1.8,0,3.4-1.4,3.4-3.1l0,0C202.6,358.4,201.1,356.9,199.3,356.9"/>
															<path id="패스_312_00000148651687236675127630000009333719310585215894_" class="st5" d="M353.5,476
																c-1.8,0-3.4,1.4-3.4,3.1s1.5,3.2,3.4,3.2c1.8,0,3.4-1.4,3.4-3.1l0,0C356.8,477.5,355.3,476,353.5,476"/>
															<path id="패스_314_00000013171560705836924270000010349256652247002793_" class="st6" d="M717.8,564.4L717.8,564.4
																"/>
															<path id="패스_314_00000145057724521927971030000010981116604449021354_" class="st6" d="M717.8,564.4"/>
															<path id="패스_314_00000053508387863793599460000010273609986816193694_" class="st6" d="M500.1,628.7
																c-1.9,0-3.5,1.5-3.5,3.2c0,1.8,1.5,3.2,3.5,3.2s3.5-1.5,3.5-3.2C503.6,630.1,502,628.7,500.1,628.7L500.1,628.7"/>
															<path id="패스_315" class="st6" d="M293.9,323.2c-1.9,0-3.5,1.5-3.5,3.2c0,1.8,1.5,3.2,3.5,3.2
																c2,0,3.5-1.5,3.5-3.2C297.3,324.6,295.8,323.2,293.9,323.2"/>
															<path id="패스_316" class="st6" d="M261.7,486c-1.9,0-3.5,1.5-3.5,3.2c0,1.8,1.5,3.2,3.5,3.2
																c1.9,0,3.5-1.5,3.5-3.2l0,0C265.2,487.5,263.6,486,261.7,486"/>
															<path id="패스_318" class="st6" d="M466.9,491.3c-1.9,0-3.5,1.5-3.5,3.2c0,1.8,1.5,3.2,3.5,3.2
																c1.9,0,3.5-1.5,3.5-3.2l0,0C470.4,492.7,468.8,491.3,466.9,491.3"/>
															<path id="패스_319" class="st6" d="M471.8,429.7c-1.9,0-3.5,1.5-3.5,3.2c0,1.8,1.5,3.2,3.5,3.2
																c1.9,0,3.5-1.5,3.5-3.2l0,0C475.3,431.2,473.7,429.7,471.8,429.7"/>
															<path id="패스_323_00000153698183982131976460000007755534350192188318_" class="st6" d="M267.1,851.5"/>
															<g>
																<g id="그룹_59" transform="translate(584.02 296.834)" class="st7">
																	<g id="그룹_58">
																		<g>
																			<g>
																				<defs>
																					<rect id="SVGID_7_" x="-50.2" y="188.5" width="215.4" height="65.8"/>
																				</defs>
																				<defs>
																					<rect id="SVGID_8_" x="-50.2" y="188.5" width="215.4" height="65.8"/>
																				</defs>
																				<defs>
																					<rect id="SVGID_9_" x="-50.2" y="188.5" width="215.4" height="65.8"/>
																				</defs>
																				<clipPath id="SVGID_10_">
																					<use xlink:href="#SVGID_7_"  style="overflow:visible;"/>
																				</clipPath>
																				<clipPath id="SVGID_11_" class="st8">
																					<use xlink:href="#SVGID_8_"  style="overflow:visible;"/>
																				</clipPath>
																				<clipPath id="SVGID_12_" class="st9">
																					<use xlink:href="#SVGID_9_"  style="overflow:visible;"/>
																				</clipPath>
																				<g id="그룹_57" class="st10">
																					<path id="패스_325" class="st6" d="M-53.2,244.5c7.8,0.4,24.5-1.8,42.5-5c18-3.1,37.6-7.2,57.1-11.2
																						c33.9-7.1,67.9-14,101.8-21c4.7-1,9.4-1.9,14.1-2.9c2-1.9,3.9-4,5.9-6c-4.1,1-8.3,1.9-12.5,2.7
																						c-17.6,3.7-32.9,5.8-49.9,9.1c-26.3,5-54.3,12.2-81.3,18.7C-2.7,235.3-33.6,242.3-53.2,244.5"/>
																				</g>
																				<g id="그룹_57_00000029007982922481434790000013825501122302928572_" class="st10">
																					<path id="패스_325_00000086677136086831287220000011785846656636986767_" class="st6" d="M-46.4,244.4
																						c7.8,0.4,24.5-1.8,42.5-5c18-3.1,37.6-7.2,57.1-11.2c33.9-7.1,67.9-14,101.8-21c4.7-1,9.4-1.9,14.1-2.9
																						c2-1.9,3.9-4,5.9-6c-4.1,1-8.3,1.9-12.5,2.7c-17.6,3.7-32.9,5.8-49.9,9.1c-26.3,5-54.3,12.2-81.3,18.7
																						C4.2,235.2-26.8,242.2-46.4,244.4"/>
																				</g>
																				<g id="그룹_57_00000164494441675171536450000017900422323071238046_" class="st10">
																					<path id="패스_325_00000140735263177735514470000010350849018947864493_" class="st6" d="M61.6,198.8
																						c5.5,5.2,19.4,13.9,34.9,22.8c15.5,8.8,33,18.1,50.3,27.3c30.2,15.9,60.3,32,90.5,47.9
																						c4.2,2.2,8.4,4.4,12.4,6.6c2.9-0.3,5.8-0.5,8.7-0.8c-3.7-1.8-7.4-3.8-11.2-5.7c-15.7-8.2-28.4-16.2-43.4-24.4
																						c-23.1-12.7-48.9-24.8-73.7-36.9C105.6,223.5,77.7,209.4,61.6,198.8"/>
																				</g>
																			</g>
																		</g>
																	</g>
																</g>
																<g id="그룹_63">
																	<g id="그룹_62" transform="translate(70.705 213.732)" class="st7">
																		<g id="그룹_61">
																			<g>
																				<g>
																					<defs>
																						<rect id="SVGID_13_" x="-567.2" y="-93.6" width="75.2" height="120.3"/>
																					</defs>
																					<clipPath id="SVGID_14_">
																						<use xlink:href="#SVGID_13_"  style="overflow:visible;"/>
																					</clipPath>
																					<g id="그룹_60" class="st11">
																						<path id="패스_326" class="st6" d="M-492.9-89.3l-74.4,116.1l70.1-118.4c0.3-1.3,1.6-2.1,3-1.8
																							c1.4,0.3,2.3,1.6,2,2.9C-492.2-90.1-492.4-89.7-492.9-89.3"/>
																					</g>
																				</g>
																			</g>
																		</g>
																	</g>
																</g>
															</g>
														</g>
													</g>
												</g>
											</g>
										</g>
									</g>
								</g>
							</g>
						</g>
					</g>
				</g>
			</g>
		</g>
	</g>
</g>
</svg>
