<svg width="1251" height="571" viewBox="0 0 1251 571" fill="none" xmlns="http://www.w3.org/2000/svg">
<g id="con2_line">
<path id="con2_line_2" d="M45 526.001C51.7245 525.825 58.1633 524.372 64.7222 523.001C90.4209 517.632 116.473 513.399 142.333 508.89C195.955 499.542 249.524 487.173 299.667 465.557C350.79 443.518 403.82 417.914 446.222 381.335C480.719 351.575 509.271 315.414 535 278.001C559.434 242.473 573.957 205.48 576.778 162.224C578.214 140.202 575.27 118.001 570.556 96.5015C568.604 87.6031 566.638 78.4977 561.556 70.7793C553.958 59.2425 540.332 47.0579 526.222 45.2237C514.139 43.6529 504.731 50.641 495.222 57.2237C475.655 70.7699 463.405 89.0514 453.778 110.446C441.802 137.06 432.697 164.814 427.444 193.557C417.963 245.439 417.717 299.228 429.222 351.001C434.342 374.039 441.554 400.332 455.889 419.446C475.55 445.661 507.227 465.631 539.667 471.224C577.652 477.773 618.08 479.837 656.333 474.557C683.208 470.848 709.848 464.987 736.278 458.946C773.136 450.521 810.369 443.873 846.444 432.335C879.467 421.773 909.919 405.891 940.444 389.668C966.679 375.725 993.145 361.719 1017.89 345.224C1046.81 325.944 1073.17 297.939 1084.78 264.557C1092.05 243.642 1094 221.084 1094 199.057C1094 185.347 1090.96 174.792 1084.06 163.057C1074.01 145.973 1049.42 132.978 1030 134.057C995.885 135.952 975.28 176.135 959.556 201.001C947.994 219.284 944.442 239.056 940.056 259.89C935.926 279.504 933 299.332 933 319.39C933 340.249 933.795 360.76 939.111 381.057C941.813 391.373 946.341 401.119 950.778 410.779C954.649 419.21 958.001 427.577 963.611 435.057C976.415 452.129 989.692 463.809 1009.56 471.946C1033.49 481.75 1058.7 485.066 1084 489.001C1109.68 492.996 1136.07 493.092 1162 494.001C1172.97 494.386 1184.05 494.511 1195 495.224C1197.28 495.372 1204.88 494.765 1206 497.001" stroke="#FFD646" stroke-width="90" stroke-linecap="round"/>
</g>
</svg>
