<?xml version="1.0" encoding="utf-8"?>
<!-- Generator: Adobe Illustrator 22.0.1, SVG Export Plug-In . SVG Version: 6.00 Build 0)  -->
<svg version="1.1" id="Layer_1" xmlns="http://www.w3.org/2000/svg" xmlns:xlink="http://www.w3.org/1999/xlink" x="0px" y="0px"
	 viewBox="0 0 595.3 841.9" style="enable-background:new 0 0 595.3 841.9;" xml:space="preserve">
<style type="text/css">
	.st0{fill:none;stroke:#000000;stroke-width:45.6268;stroke-linecap:round;stroke-miterlimit:10;}
</style>
<path class="st0" d="M162.3,261c-8.1,5-16.3,10.2-22.5,17.4c-6.2,7.2-10.3,16.8-8.8,26.2c4.8,30.7,51.5,13.8,69.1,7.8
	c23.5-8,71.1-35.5,54.6,12.1c-10.5,30.2-35.4,57.3-57.9,79.3c-15.4,15-34.6,31.9-31.7,53.2c2.3,16.7,19.2,28.9,36,29.7
	s33.1-7.5,45.7-18.7c12.7-11.2,22.5-25.1,33.3-38.1c9.3-11.3,19.7-22.3,32.9-28.6c13.3-6.3,30.1-6.9,41.8,1.9
	c15,11.1,17.1,33.9,9.6,51.1c-7.4,17.2-22.1,30-36.4,42.1c-9.1,7.7-18.5,15.6-24.6,25.9c-6.1,10.3-8.3,23.7-2.5,34.2
	c6.1,10.9,19.5,16,32,15.9c12.5-0.1,24.5-4.5,36.5-8.4c15.5-5,32.2-9.2,47.8-4.6c11,3.2,17.7,10.9,23,20.5
	c7.1,12.9,9,18.5,26.2,16.3"/>
</svg>
